<?xml version="1.0" encoding="UTF-8" ?>
<!DOCTYPE svg PUBLIC "-//W3C//DTD SVG 1.1//EN" "http://www.w3.org/Graphics/SVG/1.1/DTD/svg11.dtd">
<svg width="1554pt" height="319pt" viewBox="0 0 1554 319" version="1.1" xmlns="http://www.w3.org/2000/svg">
<g id="#ffffffff">
</g>
<g id="#efad8dff">
<path fill="#efad8d" opacity="1.00" d=" M 34.66 18.71 C 40.85 16.44 47.53 16.86 54.01 16.84 C 535.68 16.84 1017.36 16.85 1499.03 16.84 C 1506.26 16.67 1513.93 16.79 1520.37 20.55 C 1527.97 24.89 1533.43 33.15 1533.81 41.96 C 1533.96 115.79 1533.67 189.66 1533.96 263.47 C 1532.11 276.84 1519.69 287.82 1506.03 286.99 C 1019.36 287.04 532.68 287.01 46.01 287.01 C 38.04 287.43 29.89 284.49 24.44 278.58 C 20.26 274.53 18.11 268.95 17.04 263.33 C 16.61 259.89 16.88 256.41 16.84 252.95 C 16.84 185.98 16.85 119.01 16.84 52.04 C 16.76 44.78 16.68 37.01 20.53 30.57 C 23.79 25.26 28.66 20.70 34.66 18.71 M 794.46 79.59 C 788.73 80.47 783.79 84.59 781.53 89.88 C 777.92 98.28 782.32 108.96 790.87 112.28 C 800.17 116.33 812.14 110.05 813.88 100.01 C 816.82 88.85 805.75 77.23 794.46 79.59 M 146.46 92.64 C 151.55 98.14 157.97 102.26 163.20 107.60 C 163.36 116.49 163.34 125.40 163.20 134.29 C 157.42 125.55 147.32 120.50 137.01 119.82 C 125.28 118.53 112.74 121.65 104.01 129.85 C 91.05 141.57 88.51 162.04 95.70 177.52 C 100.59 187.82 111.13 194.40 122.11 196.42 C 133.41 198.49 146.16 198.06 155.64 190.84 C 158.79 188.76 160.66 185.41 163.23 182.74 C 163.33 186.80 163.30 190.85 163.27 194.91 C 179.51 194.95 195.75 195.13 211.98 194.80 C 205.83 189.90 200.37 184.22 194.30 179.23 C 194.16 149.74 194.23 120.25 194.26 90.75 C 178.32 91.25 162.40 92.02 146.46 92.64 M 1063.61 107.61 C 1058.33 117.64 1047.77 125.45 1036.15 125.35 C 1036.17 128.67 1036.19 131.98 1036.15 135.29 C 1039.92 135.24 1043.70 135.24 1047.48 135.37 C 1047.29 145.91 1047.45 156.47 1047.39 167.02 C 1047.25 174.39 1049.36 182.10 1054.49 187.57 C 1060.48 194.09 1069.57 196.39 1078.09 197.17 C 1089.74 198.12 1102.27 196.86 1112.21 190.21 C 1119.23 185.43 1122.43 176.62 1121.47 168.34 C 1117.82 167.28 1114.20 166.15 1110.55 165.16 C 1110.55 168.79 1110.53 172.55 1109.03 175.93 C 1107.20 179.81 1103.33 182.64 1099.03 183.03 C 1093.80 183.61 1087.50 183.46 1083.82 179.12 C 1080.48 175.65 1079.76 170.62 1079.62 166.01 C 1079.58 155.77 1079.56 145.52 1079.62 135.28 C 1090.48 135.24 1101.35 135.26 1112.22 135.26 C 1112.23 130.87 1112.23 126.47 1112.23 122.07 C 1101.36 121.95 1090.50 122.13 1079.64 121.97 C 1079.52 112.89 1079.62 103.80 1079.59 94.72 C 1075.57 94.75 1071.55 94.85 1067.54 94.59 C 1066.46 99.00 1066.04 103.64 1063.61 107.61 M 1322.27 125.06 C 1319.03 124.38 1316.09 122.79 1312.90 121.98 C 1301.37 118.86 1289.04 118.80 1277.43 121.55 C 1269.31 123.55 1261.20 127.30 1255.90 133.98 C 1251.36 139.57 1250.25 147.58 1252.76 154.29 C 1255.10 160.90 1260.89 165.72 1267.09 168.64 C 1261.64 170.23 1255.57 171.08 1251.42 175.34 C 1248.37 177.84 1247.55 182.63 1249.94 185.86 C 1253.69 190.74 1260.06 192.45 1265.84 193.50 C 1258.37 195.55 1249.93 197.49 1244.99 203.98 C 1241.74 208.17 1243.61 214.43 1247.74 217.29 C 1253.36 221.37 1260.31 223.04 1267.05 224.24 C 1280.59 226.49 1294.38 226.35 1308.06 225.95 C 1319.62 225.11 1331.57 224.21 1342.17 219.11 C 1347.56 216.57 1352.55 212.12 1353.97 206.12 C 1355.35 200.32 1354.20 193.42 1349.51 189.37 C 1345.48 185.81 1340.17 184.24 1335.05 183.06 C 1317.29 179.29 1298.99 182.18 1281.13 179.44 C 1277.63 178.82 1273.36 177.85 1272.29 173.91 C 1274.16 170.30 1278.11 172.88 1281.07 173.14 C 1295.94 175.63 1312.27 174.48 1325.40 166.50 C 1333.32 161.80 1339.13 152.44 1336.93 143.05 C 1336.30 137.80 1332.90 133.59 1329.27 130.02 C 1330.67 126.15 1334.81 123.75 1338.83 125.32 C 1342.96 126.88 1343.09 131.86 1343.32 135.58 C 1348.63 134.18 1353.99 132.98 1359.39 131.90 C 1361.07 126.61 1361.00 120.20 1357.03 115.92 C 1352.54 110.95 1345.16 110.40 1338.91 111.05 C 1331.29 111.85 1323.52 117.09 1322.27 125.06 M 711.96 119.89 C 701.13 121.10 691.05 127.84 686.04 137.55 C 685.75 137.57 685.17 137.62 684.87 137.64 C 682.91 130.95 678.38 124.83 671.87 122.04 C 664.67 119.01 656.46 119.01 648.92 120.65 C 640.43 122.55 633.35 128.25 628.40 135.24 C 627.36 130.95 627.97 126.52 627.81 122.16 C 612.17 122.81 596.53 123.38 580.90 124.22 C 586.95 128.81 592.55 133.98 598.31 138.92 C 598.23 152.03 598.31 165.13 598.28 178.24 C 597.61 179.80 596.10 180.77 594.94 181.94 C 590.09 186.08 585.42 190.43 580.76 194.78 C 600.50 195.14 620.26 194.98 640.01 194.86 C 636.41 190.17 632.82 185.48 629.29 180.74 C 626.90 178.05 628.04 174.24 627.81 170.99 C 627.83 162.24 627.15 152.82 631.60 144.91 C 634.96 138.92 642.66 135.36 649.28 137.79 C 653.33 139.24 655.34 143.56 656.22 147.49 C 657.86 157.70 656.76 168.05 657.27 178.33 C 653.43 184.00 649.18 189.38 645.02 194.81 C 663.24 195.07 681.49 195.07 699.72 194.81 C 695.27 189.98 691.92 184.27 687.60 179.34 C 687.37 171.89 687.58 164.44 687.48 156.99 C 687.09 151.28 689.14 145.28 693.30 141.29 C 697.94 136.51 706.79 135.16 711.65 140.29 C 716.24 145.70 715.66 153.33 715.77 159.97 C 715.55 166.43 716.18 172.99 715.49 179.40 C 711.90 184.66 708.33 190.00 704.25 194.90 C 723.53 195.03 742.82 194.96 762.11 194.93 C 756.70 189.58 751.13 184.39 745.87 178.91 C 744.83 166.13 746.90 153.03 744.04 140.36 C 742.55 134.05 739.53 127.63 733.93 123.97 C 727.54 119.63 719.42 119.07 711.96 119.89 M 925.23 126.29 C 923.85 127.40 922.44 126.12 921.15 125.61 C 911.26 120.63 899.98 119.24 889.03 119.62 C 876.07 120.03 862.50 122.89 852.09 131.06 C 844.18 137.18 838.92 146.88 839.25 157.01 C 838.67 166.57 841.88 176.45 848.79 183.22 C 857.24 191.73 869.30 195.23 880.90 196.72 C 894.38 198.19 908.60 197.86 921.16 192.19 C 928.83 188.79 935.94 183.01 939.06 175.02 C 936.95 173.41 934.86 171.77 932.88 170.02 C 926.20 177.78 915.93 181.32 905.97 182.06 C 899.13 182.53 891.84 182.71 885.65 179.28 C 877.88 175.37 873.04 166.63 873.44 157.99 C 873.12 150.55 875.58 142.60 881.46 137.75 C 889.65 131.74 901.70 131.32 910.26 136.81 C 915.86 140.47 919.28 146.48 921.42 152.67 C 926.79 152.02 932.16 151.36 937.54 150.75 C 937.44 140.23 937.57 129.70 937.47 119.18 C 933.33 121.45 929.34 123.99 925.23 126.29 M 381.37 136.30 C 381.17 131.56 381.16 126.83 381.32 122.09 C 365.20 122.86 349.06 123.35 332.95 124.15 C 338.75 129.05 344.55 133.94 350.23 138.99 C 350.13 152.03 350.25 165.08 350.19 178.12 C 349.31 180.11 347.35 181.32 345.82 182.79 C 341.11 186.65 337.02 191.22 332.07 194.79 C 352.60 195.09 373.14 195.08 393.67 194.79 C 390.45 192.02 388.38 188.22 385.64 185.01 C 383.71 182.28 380.56 179.76 381.21 176.03 C 381.80 166.28 379.60 155.91 383.83 146.72 C 386.46 140.48 393.25 136.04 400.11 137.17 C 405.91 137.86 409.90 143.22 411.10 148.61 C 413.29 158.37 411.77 168.43 412.38 178.33 C 408.56 184.08 404.17 189.41 400.08 194.96 C 420.45 194.98 440.82 194.95 461.19 194.97 C 455.08 189.94 449.51 184.29 443.42 179.25 C 443.00 167.89 444.19 156.42 442.30 145.15 C 441.03 138.16 438.07 131.17 432.56 126.46 C 425.44 120.08 415.18 118.82 406.01 119.95 C 395.78 121.07 386.55 127.49 381.37 136.30 M 480.32 128.32 C 475.53 131.73 472.62 137.33 472.35 143.19 C 481.07 144.40 489.79 145.65 498.53 146.78 C 499.30 140.75 503.99 135.72 509.92 134.44 C 515.44 133.23 522.30 133.08 526.50 137.49 C 530.38 141.98 530.57 148.30 530.73 153.94 C 515.58 153.44 500.02 152.89 485.38 157.48 C 479.79 159.10 474.33 162.12 470.87 166.91 C 465.14 174.50 466.41 186.90 474.57 192.29 C 482.70 197.30 492.70 197.88 502.00 197.23 C 512.68 196.58 523.19 193.15 531.88 186.87 C 534.00 194.27 542.06 197.17 549.07 197.25 C 557.04 197.75 565.50 197.68 572.74 193.84 C 572.82 191.26 572.82 188.68 572.74 186.10 C 569.80 185.75 566.42 185.22 564.61 182.59 C 562.51 178.72 563.63 174.17 563.37 169.99 C 563.03 159.50 564.63 148.56 560.71 138.54 C 557.97 131.14 551.38 125.77 544.07 123.24 C 532.21 119.11 519.38 119.23 507.01 120.01 C 497.73 120.97 488.05 122.77 480.32 128.32 M 1148.23 125.37 C 1141.14 128.46 1135.42 135.27 1135.41 143.26 C 1144.09 144.40 1152.78 145.54 1161.46 146.81 C 1162.38 140.79 1166.97 135.58 1173.02 134.37 C 1178.51 133.33 1185.27 133.11 1189.46 137.46 C 1193.34 141.95 1193.55 148.28 1193.74 153.91 C 1178.15 153.44 1162.09 152.87 1147.10 157.88 C 1140.18 160.18 1133.35 164.89 1131.18 172.19 C 1129.06 179.17 1130.96 187.55 1137.06 191.94 C 1142.36 195.42 1148.75 197.01 1155.04 197.31 C 1168.97 198.20 1183.51 195.24 1194.90 186.85 C 1196.53 192.70 1202.27 196.05 1207.99 196.83 C 1217.23 197.94 1227.12 198.06 1235.70 193.94 C 1235.69 191.46 1235.82 188.97 1236.33 186.53 C 1233.81 185.86 1231.13 185.46 1228.96 183.95 C 1226.83 182.39 1226.33 179.52 1226.35 177.05 C 1226.32 169.03 1226.37 161.02 1226.34 153.00 C 1226.03 145.24 1224.62 136.86 1219.08 131.00 C 1212.26 123.46 1201.74 120.99 1192.02 120.05 C 1177.33 119.07 1161.88 119.19 1148.23 125.37 M 1386.28 122.15 C 1377.88 124.77 1369.53 130.55 1367.10 139.43 C 1365.71 145.29 1366.06 152.10 1369.99 156.96 C 1374.01 162.51 1380.64 165.22 1387.06 166.91 C 1399.32 170.38 1412.29 169.39 1424.63 172.42 C 1427.11 173.33 1431.23 174.38 1430.60 177.86 C 1430.57 180.62 1427.71 181.91 1425.46 182.57 C 1418.14 184.58 1410.46 183.51 1403.12 182.25 C 1391.09 179.84 1379.45 175.21 1369.20 168.47 C 1369.18 177.78 1369.13 187.10 1369.21 196.42 C 1374.84 193.88 1380.45 191.30 1386.13 188.87 C 1404.41 198.72 1427.67 200.89 1446.49 191.27 C 1452.05 188.03 1457.11 183.09 1458.85 176.72 C 1460.58 170.36 1459.70 162.86 1455.00 157.94 C 1448.56 150.97 1438.85 148.70 1429.87 147.10 C 1418.72 144.95 1407.01 145.53 1396.27 141.48 C 1395.63 140.67 1395.01 139.88 1394.40 139.08 C 1395.53 134.43 1400.96 133.52 1405.01 132.96 C 1421.96 131.88 1438.77 137.41 1453.38 145.71 C 1453.32 137.17 1453.40 128.62 1453.32 120.08 C 1447.58 122.34 1441.96 124.92 1436.16 127.01 C 1420.73 119.94 1402.73 117.02 1386.28 122.15 M 213.68 122.03 C 218.87 126.25 223.84 130.74 229.01 134.98 C 229.98 135.75 230.81 136.68 231.24 137.87 C 239.37 156.94 247.73 175.91 255.93 194.96 C 262.93 195.08 269.93 194.72 276.92 195.18 C 275.27 200.44 273.13 206.04 268.43 209.31 C 263.87 212.94 257.34 212.69 252.10 210.84 C 244.36 207.92 241.98 197.99 244.42 190.77 C 235.97 191.55 227.52 192.35 219.10 193.36 C 216.75 202.42 219.52 213.00 227.23 218.70 C 237.22 226.16 250.49 226.95 262.47 225.73 C 270.90 224.99 279.14 221.22 284.70 214.74 C 292.10 206.74 295.23 196.08 299.00 186.12 C 305.14 168.98 311.49 151.92 317.69 134.80 C 322.82 130.53 327.97 126.28 333.17 122.09 C 317.23 122.06 301.29 121.85 285.35 122.17 C 287.99 125.36 290.25 128.84 292.71 132.17 C 294.11 133.53 292.94 135.37 292.62 136.91 C 288.24 151.59 284.80 166.55 280.03 181.10 C 274.79 165.05 269.47 149.03 264.21 132.99 C 266.75 129.32 269.26 125.63 271.98 122.09 C 252.55 121.93 233.11 122.08 213.68 122.03 M 766.13 124.23 C 772.24 128.32 777.08 134.05 783.26 138.04 C 783.82 151.67 783.37 165.34 783.49 178.98 C 777.60 184.25 771.71 189.53 765.88 194.88 C 787.92 194.95 809.98 195.19 832.01 194.74 C 826.90 191.36 822.93 186.62 818.16 182.82 C 816.62 181.38 814.67 180.16 813.85 178.14 C 813.75 164.43 813.85 150.71 813.82 137.00 C 813.87 132.11 813.53 127.18 814.31 122.33 C 798.25 122.57 782.18 123.47 766.13 124.23 M 956.25 139.09 C 956.28 144.30 956.27 149.52 956.25 154.73 C 978.27 154.68 1000.29 154.77 1022.31 154.68 C 1022.19 149.50 1022.22 144.31 1022.29 139.12 C 1000.27 138.97 978.26 139.04 956.25 139.09 Z" />
<path fill="#efad8d" opacity="1.00" d=" M 1291.45 131.63 C 1297.20 130.77 1303.93 132.35 1307.21 137.55 C 1311.23 144.63 1310.41 155.39 1302.94 159.89 C 1296.55 163.23 1287.44 162.90 1282.46 157.23 C 1279.01 153.15 1278.82 147.41 1279.65 142.37 C 1280.77 136.75 1285.70 132.17 1291.45 131.63 Z" />
<path fill="#efad8d" opacity="1.00" d=" M 139.42 136.71 C 145.23 135.21 152.16 136.09 156.61 140.42 C 160.44 143.82 162.27 148.97 162.83 153.96 C 163.90 161.17 162.65 169.12 157.91 174.88 C 150.73 182.80 136.02 182.38 129.98 173.29 C 125.76 167.41 125.85 159.76 126.52 152.87 C 127.38 145.65 132.02 138.47 139.42 136.71 Z" />
<path fill="#efad8d" opacity="1.00" d=" M 505.38 168.39 C 513.16 164.43 522.20 164.94 530.69 164.75 C 530.66 168.16 531.30 171.78 530.02 175.04 C 527.64 179.43 522.57 181.53 517.90 182.45 C 512.93 183.49 507.17 183.17 503.15 179.76 C 499.59 176.60 501.18 170.23 505.38 168.39 Z" />
<path fill="#efad8d" opacity="1.00" d=" M 1168.41 168.33 C 1176.20 164.44 1185.23 164.96 1193.71 164.78 C 1193.56 168.79 1194.74 173.52 1191.81 176.83 C 1187.35 181.75 1180.23 183.28 1173.84 182.86 C 1170.49 182.36 1166.78 181.20 1164.88 178.19 C 1163.11 174.62 1164.74 169.95 1168.41 168.33 Z" />
<path fill="#efad8d" opacity="1.00" d=" M 1280.24 195.40 C 1291.53 195.50 1302.90 195.34 1314.12 196.85 C 1318.13 197.62 1323.52 198.63 1324.81 203.18 C 1325.81 205.07 1324.94 207.11 1324.33 208.96 C 1316.46 214.73 1306.14 213.77 1296.93 214.18 C 1290.68 214.03 1283.70 214.19 1278.41 210.37 C 1273.37 206.66 1274.69 197.97 1280.24 195.40 Z" />
</g>
<g id="#010101ff">
<path fill="#010101" opacity="1.00" d=" M 794.46 79.59 C 805.75 77.23 816.82 88.85 813.88 100.01 C 812.14 110.05 800.17 116.33 790.87 112.28 C 782.32 108.96 777.92 98.28 781.53 89.88 C 783.79 84.59 788.73 80.47 794.46 79.59 Z" />
<path fill="#010101" opacity="1.00" d=" M 146.46 92.64 C 162.40 92.02 178.32 91.25 194.26 90.75 C 194.23 120.25 194.16 149.74 194.30 179.23 C 200.37 184.22 205.83 189.90 211.98 194.80 C 195.75 195.13 179.51 194.95 163.27 194.91 C 163.30 190.85 163.33 186.80 163.23 182.74 C 160.66 185.41 158.79 188.76 155.64 190.84 C 146.16 198.06 133.41 198.49 122.11 196.42 C 111.13 194.40 100.59 187.82 95.70 177.52 C 88.51 162.04 91.05 141.57 104.01 129.85 C 112.74 121.65 125.28 118.53 137.01 119.82 C 147.32 120.50 157.42 125.55 163.20 134.29 C 163.34 125.40 163.36 116.49 163.20 107.60 C 157.97 102.26 151.55 98.14 146.46 92.64 M 139.42 136.71 C 132.02 138.47 127.38 145.65 126.52 152.87 C 125.85 159.76 125.76 167.41 129.98 173.29 C 136.02 182.38 150.73 182.80 157.91 174.88 C 162.65 169.12 163.90 161.17 162.83 153.96 C 162.27 148.97 160.44 143.82 156.61 140.42 C 152.16 136.09 145.23 135.21 139.42 136.71 Z" />
<path fill="#010101" opacity="1.00" d=" M 1063.61 107.61 C 1066.04 103.64 1066.46 99.00 1067.54 94.59 C 1071.55 94.85 1075.57 94.75 1079.59 94.72 C 1079.62 103.80 1079.52 112.89 1079.64 121.97 C 1090.50 122.13 1101.36 121.95 1112.23 122.07 C 1112.23 126.47 1112.23 130.87 1112.22 135.26 C 1101.35 135.26 1090.48 135.24 1079.62 135.28 C 1079.56 145.52 1079.58 155.77 1079.62 166.01 C 1079.76 170.62 1080.48 175.65 1083.82 179.12 C 1087.50 183.46 1093.80 183.61 1099.03 183.03 C 1103.33 182.64 1107.20 179.81 1109.03 175.93 C 1110.53 172.55 1110.55 168.79 1110.55 165.16 C 1114.20 166.15 1117.82 167.28 1121.47 168.34 C 1122.43 176.62 1119.23 185.43 1112.21 190.21 C 1102.27 196.86 1089.74 198.12 1078.09 197.17 C 1069.57 196.39 1060.48 194.09 1054.49 187.57 C 1049.36 182.10 1047.25 174.39 1047.39 167.02 C 1047.45 156.47 1047.29 145.91 1047.48 135.37 C 1043.70 135.24 1039.92 135.24 1036.15 135.29 C 1036.19 131.98 1036.17 128.67 1036.15 125.35 C 1047.77 125.45 1058.33 117.64 1063.61 107.61 Z" />
<path fill="#010101" opacity="1.00" d=" M 1322.27 125.06 C 1323.52 117.09 1331.29 111.85 1338.91 111.05 C 1345.16 110.40 1352.54 110.95 1357.03 115.92 C 1361.00 120.20 1361.07 126.61 1359.39 131.90 C 1353.99 132.98 1348.63 134.18 1343.32 135.58 C 1343.09 131.86 1342.96 126.88 1338.83 125.32 C 1334.81 123.75 1330.67 126.15 1329.27 130.02 C 1332.90 133.59 1336.30 137.80 1336.93 143.05 C 1339.13 152.44 1333.32 161.80 1325.40 166.50 C 1312.27 174.48 1295.94 175.63 1281.07 173.14 C 1278.11 172.88 1274.16 170.30 1272.29 173.91 C 1273.36 177.85 1277.63 178.82 1281.13 179.44 C 1298.99 182.18 1317.29 179.29 1335.05 183.06 C 1340.17 184.24 1345.48 185.81 1349.51 189.37 C 1354.20 193.42 1355.35 200.32 1353.97 206.12 C 1352.55 212.12 1347.56 216.57 1342.17 219.11 C 1331.57 224.21 1319.62 225.11 1308.06 225.95 C 1294.38 226.35 1280.59 226.49 1267.05 224.24 C 1260.31 223.04 1253.36 221.37 1247.74 217.29 C 1243.61 214.43 1241.74 208.17 1244.99 203.98 C 1249.93 197.49 1258.37 195.55 1265.84 193.50 C 1260.06 192.45 1253.69 190.74 1249.94 185.86 C 1247.55 182.63 1248.37 177.84 1251.42 175.34 C 1255.57 171.08 1261.64 170.23 1267.09 168.64 C 1260.89 165.72 1255.10 160.90 1252.76 154.29 C 1250.25 147.58 1251.36 139.57 1255.90 133.98 C 1261.20 127.30 1269.31 123.55 1277.43 121.55 C 1289.04 118.80 1301.37 118.86 1312.90 121.98 C 1316.09 122.79 1319.03 124.38 1322.27 125.06 M 1291.45 131.63 C 1285.70 132.17 1280.77 136.75 1279.65 142.37 C 1278.82 147.41 1279.01 153.15 1282.46 157.23 C 1287.44 162.90 1296.55 163.23 1302.94 159.89 C 1310.41 155.39 1311.23 144.63 1307.21 137.55 C 1303.93 132.35 1297.20 130.77 1291.45 131.63 M 1280.24 195.40 C 1274.69 197.97 1273.37 206.66 1278.41 210.37 C 1283.70 214.19 1290.68 214.03 1296.93 214.18 C 1306.14 213.77 1316.46 214.73 1324.33 208.96 C 1324.94 207.11 1325.81 205.07 1324.81 203.18 C 1323.52 198.63 1318.13 197.62 1314.12 196.85 C 1302.90 195.34 1291.53 195.50 1280.24 195.40 Z" />
<path fill="#010101" opacity="1.00" d=" M 711.96 119.89 C 719.42 119.07 727.54 119.63 733.93 123.97 C 739.53 127.63 742.55 134.05 744.04 140.36 C 746.90 153.03 744.83 166.13 745.87 178.91 C 751.13 184.39 756.70 189.58 762.11 194.93 C 742.82 194.96 723.53 195.03 704.25 194.90 C 708.33 190.00 711.90 184.66 715.49 179.40 C 716.18 172.99 715.55 166.43 715.77 159.97 C 715.66 153.33 716.24 145.70 711.65 140.29 C 706.79 135.16 697.94 136.51 693.30 141.29 C 689.14 145.28 687.09 151.28 687.48 156.99 C 687.58 164.44 687.37 171.89 687.60 179.34 C 691.92 184.27 695.27 189.98 699.72 194.81 C 681.49 195.07 663.24 195.07 645.02 194.81 C 649.18 189.38 653.43 184.00 657.27 178.33 C 656.76 168.05 657.86 157.70 656.22 147.49 C 655.34 143.56 653.33 139.24 649.28 137.79 C 642.66 135.36 634.96 138.92 631.60 144.91 C 627.15 152.82 627.83 162.24 627.81 170.99 C 628.04 174.24 626.90 178.05 629.29 180.74 C 632.82 185.48 636.41 190.17 640.01 194.86 C 620.26 194.98 600.50 195.14 580.76 194.78 C 585.42 190.43 590.09 186.08 594.94 181.94 C 596.10 180.77 597.61 179.80 598.28 178.24 C 598.31 165.13 598.23 152.03 598.31 138.92 C 592.55 133.98 586.95 128.81 580.90 124.22 C 596.53 123.38 612.17 122.81 627.81 122.16 C 627.97 126.52 627.36 130.95 628.40 135.24 C 633.35 128.25 640.43 122.55 648.92 120.65 C 656.46 119.01 664.67 119.01 671.87 122.04 C 678.38 124.83 682.91 130.95 684.87 137.64 C 685.17 137.62 685.75 137.57 686.04 137.55 C 691.05 127.84 701.13 121.10 711.96 119.89 Z" />
<path fill="#010101" opacity="1.00" d=" M 925.23 126.29 C 929.34 123.99 933.33 121.45 937.47 119.18 C 937.57 129.70 937.44 140.23 937.54 150.75 C 932.16 151.36 926.79 152.02 921.42 152.67 C 919.28 146.48 915.86 140.47 910.26 136.81 C 901.70 131.32 889.65 131.74 881.46 137.75 C 875.58 142.60 873.12 150.55 873.44 157.99 C 873.04 166.63 877.88 175.37 885.65 179.28 C 891.84 182.71 899.13 182.53 905.97 182.06 C 915.93 181.32 926.20 177.78 932.88 170.02 C 934.86 171.77 936.95 173.41 939.06 175.02 C 935.94 183.01 928.83 188.79 921.16 192.19 C 908.60 197.86 894.38 198.19 880.90 196.72 C 869.30 195.23 857.24 191.73 848.79 183.22 C 841.88 176.45 838.67 166.57 839.25 157.01 C 838.92 146.88 844.18 137.18 852.09 131.06 C 862.50 122.89 876.07 120.03 889.03 119.62 C 899.98 119.24 911.26 120.63 921.15 125.61 C 922.44 126.12 923.85 127.40 925.23 126.29 Z" />
<path fill="#010101" opacity="1.00" d=" M 381.37 136.30 C 386.55 127.49 395.78 121.07 406.01 119.95 C 415.18 118.82 425.44 120.08 432.56 126.46 C 438.07 131.17 441.03 138.16 442.30 145.15 C 444.19 156.42 443.00 167.89 443.42 179.25 C 449.51 184.29 455.08 189.94 461.19 194.97 C 440.82 194.95 420.45 194.98 400.08 194.96 C 404.17 189.41 408.56 184.08 412.38 178.33 C 411.77 168.43 413.29 158.37 411.10 148.61 C 409.90 143.22 405.91 137.86 400.11 137.17 C 393.25 136.04 386.46 140.48 383.83 146.72 C 379.60 155.91 381.80 166.28 381.21 176.03 C 380.56 179.76 383.71 182.28 385.64 185.01 C 388.38 188.22 390.45 192.02 393.67 194.79 C 373.14 195.08 352.60 195.09 332.07 194.79 C 337.02 191.22 341.11 186.65 345.82 182.79 C 347.35 181.32 349.31 180.11 350.19 178.12 C 350.25 165.08 350.13 152.03 350.23 138.99 C 344.55 133.94 338.75 129.05 332.95 124.15 C 349.06 123.35 365.20 122.86 381.32 122.09 C 381.16 126.83 381.17 131.56 381.37 136.30 Z" />
<path fill="#010101" opacity="1.00" d=" M 480.32 128.32 C 488.05 122.77 497.73 120.97 507.01 120.01 C 519.38 119.23 532.21 119.11 544.07 123.24 C 551.38 125.77 557.97 131.14 560.71 138.54 C 564.63 148.56 563.03 159.50 563.37 169.99 C 563.63 174.17 562.51 178.72 564.61 182.59 C 566.42 185.22 569.80 185.75 572.74 186.10 C 572.82 188.68 572.82 191.26 572.74 193.84 C 565.50 197.68 557.04 197.75 549.07 197.25 C 542.06 197.17 534.00 194.27 531.88 186.87 C 523.19 193.15 512.68 196.58 502.00 197.23 C 492.70 197.88 482.70 197.30 474.57 192.29 C 466.41 186.90 465.14 174.50 470.87 166.91 C 474.33 162.12 479.79 159.10 485.38 157.48 C 500.02 152.89 515.58 153.44 530.73 153.94 C 530.57 148.30 530.38 141.98 526.50 137.49 C 522.30 133.08 515.44 133.23 509.92 134.44 C 503.99 135.72 499.30 140.75 498.53 146.78 C 489.79 145.65 481.07 144.40 472.35 143.19 C 472.62 137.33 475.53 131.73 480.32 128.32 M 505.38 168.39 C 501.18 170.23 499.59 176.60 503.15 179.76 C 507.17 183.17 512.93 183.49 517.90 182.45 C 522.57 181.53 527.64 179.43 530.02 175.04 C 531.30 171.78 530.66 168.16 530.69 164.75 C 522.20 164.94 513.16 164.43 505.38 168.39 Z" />
<path fill="#010101" opacity="1.00" d=" M 1148.23 125.37 C 1161.88 119.19 1177.33 119.07 1192.02 120.05 C 1201.74 120.99 1212.26 123.46 1219.08 131.00 C 1224.62 136.86 1226.03 145.24 1226.34 153.00 C 1226.37 161.02 1226.32 169.03 1226.35 177.05 C 1226.33 179.52 1226.83 182.39 1228.96 183.95 C 1231.13 185.46 1233.81 185.86 1236.33 186.53 C 1235.82 188.97 1235.69 191.46 1235.70 193.94 C 1227.12 198.06 1217.23 197.94 1207.99 196.83 C 1202.27 196.05 1196.53 192.70 1194.90 186.85 C 1183.51 195.24 1168.97 198.20 1155.04 197.31 C 1148.75 197.01 1142.36 195.42 1137.06 191.94 C 1130.96 187.55 1129.06 179.17 1131.18 172.19 C 1133.35 164.89 1140.18 160.18 1147.10 157.88 C 1162.09 152.87 1178.15 153.44 1193.74 153.91 C 1193.55 148.28 1193.34 141.95 1189.46 137.46 C 1185.27 133.11 1178.51 133.33 1173.02 134.37 C 1166.97 135.58 1162.38 140.79 1161.46 146.81 C 1152.78 145.54 1144.09 144.40 1135.41 143.26 C 1135.42 135.27 1141.14 128.46 1148.23 125.37 M 1168.41 168.33 C 1164.74 169.95 1163.11 174.62 1164.88 178.19 C 1166.78 181.20 1170.49 182.36 1173.84 182.86 C 1180.23 183.28 1187.35 181.75 1191.81 176.83 C 1194.74 173.52 1193.56 168.79 1193.71 164.78 C 1185.23 164.96 1176.20 164.44 1168.41 168.33 Z" />
<path fill="#010101" opacity="1.00" d=" M 1386.28 122.15 C 1402.73 117.02 1420.73 119.94 1436.16 127.01 C 1441.96 124.92 1447.58 122.34 1453.32 120.08 C 1453.40 128.62 1453.32 137.17 1453.38 145.71 C 1438.77 137.41 1421.96 131.88 1405.01 132.96 C 1400.96 133.52 1395.53 134.43 1394.40 139.08 C 1395.01 139.88 1395.63 140.67 1396.27 141.48 C 1407.01 145.53 1418.72 144.95 1429.87 147.10 C 1438.85 148.70 1448.56 150.97 1455.00 157.94 C 1459.70 162.86 1460.58 170.36 1458.85 176.72 C 1457.11 183.09 1452.05 188.03 1446.49 191.27 C 1427.67 200.89 1404.41 198.72 1386.13 188.87 C 1380.45 191.30 1374.84 193.88 1369.21 196.42 C 1369.13 187.10 1369.18 177.78 1369.20 168.47 C 1379.45 175.21 1391.09 179.84 1403.12 182.25 C 1410.46 183.51 1418.14 184.58 1425.46 182.57 C 1427.71 181.91 1430.57 180.62 1430.60 177.86 C 1431.23 174.38 1427.11 173.33 1424.63 172.42 C 1412.29 169.39 1399.32 170.38 1387.06 166.91 C 1380.64 165.22 1374.01 162.51 1369.99 156.96 C 1366.06 152.10 1365.71 145.29 1367.10 139.43 C 1369.53 130.55 1377.88 124.77 1386.28 122.15 Z" />
<path fill="#010101" opacity="1.00" d=" M 213.68 122.03 C 233.11 122.08 252.55 121.93 271.98 122.09 C 269.26 125.63 266.75 129.32 264.21 132.99 C 269.47 149.03 274.79 165.05 280.03 181.10 C 284.80 166.55 288.24 151.59 292.62 136.91 C 292.94 135.37 294.11 133.53 292.71 132.17 C 290.25 128.84 287.99 125.36 285.35 122.17 C 301.29 121.85 317.23 122.06 333.17 122.09 C 327.97 126.28 322.82 130.53 317.69 134.80 C 311.49 151.92 305.14 168.98 299.00 186.12 C 295.23 196.08 292.10 206.74 284.70 214.74 C 279.14 221.22 270.90 224.99 262.47 225.73 C 250.49 226.95 237.22 226.16 227.23 218.70 C 219.52 213.00 216.75 202.42 219.10 193.36 C 227.52 192.35 235.97 191.55 244.42 190.77 C 241.98 197.99 244.36 207.92 252.10 210.84 C 257.34 212.69 263.87 212.94 268.43 209.31 C 273.13 206.04 275.27 200.44 276.92 195.18 C 269.93 194.72 262.93 195.08 255.93 194.96 C 247.73 175.91 239.37 156.94 231.24 137.87 C 230.81 136.68 229.98 135.75 229.01 134.98 C 223.84 130.74 218.87 126.25 213.68 122.03 Z" />
<path fill="#010101" opacity="1.00" d=" M 766.13 124.23 C 782.18 123.47 798.25 122.57 814.31 122.33 C 813.53 127.18 813.87 132.11 813.82 137.00 C 813.85 150.71 813.75 164.43 813.85 178.14 C 814.67 180.16 816.62 181.38 818.16 182.82 C 822.93 186.62 826.90 191.36 832.01 194.74 C 809.98 195.19 787.92 194.95 765.88 194.88 C 771.71 189.53 777.60 184.25 783.49 178.98 C 783.37 165.34 783.82 151.67 783.26 138.04 C 777.08 134.05 772.24 128.32 766.13 124.23 Z" />
<path fill="#010101" opacity="1.00" d=" M 956.25 139.09 C 978.26 139.04 1000.27 138.97 1022.29 139.12 C 1022.22 144.31 1022.19 149.50 1022.31 154.68 C 1000.29 154.77 978.27 154.68 956.25 154.73 C 956.27 149.52 956.28 144.30 956.25 139.09 Z" />
</g>
<g id="#8e4d1eff">
<path fill="#8e4d1e" opacity="1.00" d=" M 17.04 263.33 C 18.11 268.95 20.26 274.53 24.44 278.58 C 29.89 284.49 38.04 287.43 46.01 287.01 C 532.68 287.01 1019.36 287.04 1506.03 286.99 C 1519.69 287.82 1532.11 276.84 1533.96 263.47 C 1533.95 270.29 1534.76 277.47 1531.91 283.89 C 1527.93 293.76 1517.69 300.61 1507.04 300.51 C 1019.37 300.53 531.70 300.51 44.04 300.52 C 33.88 300.67 23.94 294.39 19.68 285.17 C 16.25 278.44 16.88 270.64 17.04 263.33 Z" />
</g>
</svg>
